<?xml version="1.0" encoding="UTF-8" standalone="no"?>
<svg
   id="svg8"
   version="1.1"
   viewBox="0 0 52.916665 15.345834"
   height="58"
   width="200"
   xml:space="preserve"
   xmlns="http://www.w3.org/2000/svg"
   xmlns:svg="http://www.w3.org/2000/svg"
   xmlns:rdf="http://www.w3.org/1999/02/22-rdf-syntax-ns#"
   xmlns:cc="http://creativecommons.org/ns#"
   xmlns:dc="http://purl.org/dc/elements/1.1/"><defs
     id="defs2" /><metadata
     id="metadata5"><rdf:RDF><cc:Work
         rdf:about=""><dc:format>image/svg+xml</dc:format><dc:type
           rdf:resource="http://purl.org/dc/dcmitype/StillImage" /></cc:Work></rdf:RDF></metadata><g
     id="layer1"><g
       id="g5"
       transform="translate(0,0.2645822)"><path
         d="M 22.021088,3.7485269 Q 21.703941,3.0814248 21.102456,2.7205335 20.50097,2.3487061 19.702635,2.3487061 q -0.798335,0 -1.443565,0.3718274 -0.634294,0.3608913 -1.006121,1.0498656 -0.360892,0.6780382 -0.360892,1.5747984 0,0.8967602 0.360892,1.5747984 0.371827,0.6780382 1.006121,1.0498656 0.64523,0.3608913 1.443565,0.3608913 1.115482,0 1.837265,-0.6671021 0.721783,-0.6671021 0.84208,-1.8044565 H 19.341744 V 5.0499228 h 4.101037 v 0.765527 q -0.08749,0.9405046 -0.590549,1.7279038 -0.503061,0.7764631 -1.323268,1.2357793 -0.820208,0.4483801 -1.826329,0.4483801 -1.060802,0 -1.93569,-0.4921245 Q 16.892057,8.2323279 16.378061,7.3465038 15.875,6.4606797 15.875,5.3451975 q 0,-1.1154822 0.503061,-2.0013063 0.513996,-0.8967602 1.388884,-1.3888847 0.874888,-0.5030606 1.93569,-0.5030606 1.213907,0 2.143476,0.6014855 0.940504,0.6014855 1.367012,1.6950955 z m 3.729209,0.3936996 Q 26.012764,3.6282298 26.493952,3.3438912 26.986077,3.0595526 27.685987,3.0595526 V 4.087546 h -0.262466 q -1.673224,0 -1.673224,1.8153926 V 9.1618964 H 24.755112 V 3.1689136 h 0.995185 z m 8.552021,1.7935204 q 0,0.2843386 -0.03281,0.6014855 h -4.790012 q 0.05468,0.8858241 0.601485,1.3888847 0.557742,0.4921245 1.345141,0.4921245 0.64523,0 1.071738,-0.2952747 0.437444,-0.3062108 0.612421,-0.8092714 h 1.071738 q -0.240594,0.8639519 -0.962377,1.4107569 -0.721782,0.5358689 -1.79352,0.5358689 -0.853016,0 -1.531054,-0.3827635 -0.667102,-0.3827635 -1.049866,-1.0826739 -0.382763,-0.7108465 -0.382763,-1.640415 0,-0.9295685 0.371827,-1.6294789 0.371827,-0.6999104 1.03893,-1.0717378 0.678038,-0.3827635 1.552926,-0.3827635 0.853016,0 1.509182,0.3718274 0.656166,0.3718274 1.006121,1.0279934 0.360891,0.6452299 0.360891,1.4654374 z M 33.274325,5.727961 q 0,-0.5686772 -0.251531,-0.9733129 -0.25153,-0.4155718 -0.688974,-0.6233577 -0.426508,-0.218722 -0.951441,-0.218722 -0.754591,0 -1.290459,0.4811884 -0.524933,0.4811884 -0.601486,1.3342042 z m 1.968507,0.4155718 q 0,-0.9186324 0.371828,-1.6076067 0.371827,-0.6999104 1.017057,-1.0826739 0.656166,-0.3827635 1.465437,-0.3827635 0.699911,0 1.301396,0.328083 0.601486,0.3171469 0.918633,0.8420797 v -3.171469 h 1.006121 v 8.092714 H 40.317183 V 8.0354781 q -0.295275,0.5358689 -0.874888,0.8858241 -0.579614,0.3390191 -1.356077,0.3390191 -0.798335,0 -1.454501,-0.3936996 Q 35.986487,8.4729221 35.61466,7.7620756 35.242832,7.0512291 35.242832,6.1435328 Z m 5.074351,0.010936 q 0,-0.6780382 -0.273403,-1.1810988 -0.273402,-0.5030606 -0.743655,-0.765527 -0.459316,-0.2734025 -1.017057,-0.2734025 -0.557741,0 -1.017057,0.2624664 -0.459316,0.2624664 -0.732719,0.765527 -0.273402,0.5030606 -0.273402,1.1810988 0,0.6889743 0.273402,1.202971 0.273403,0.5030606 0.732719,0.7764631 0.459316,0.2624664 1.017057,0.2624664 0.557741,0 1.017057,-0.2624664 0.470253,-0.2734025 0.743655,-0.7764631 0.273403,-0.5139967 0.273403,-1.1920349 z m 5.304015,3.1058524 q -0.842079,0 -1.531054,-0.3827635 -0.678038,-0.3827635 -1.071737,-1.0826739 -0.382764,-0.7108465 -0.382764,-1.640415 0,-0.9186324 0.3937,-1.6185428 0.404635,-0.7108465 1.09361,-1.0826739 0.688974,-0.3827635 1.54199,-0.3827635 0.853016,0 1.54199,0.3827635 0.688974,0.3718274 1.082674,1.0717378 0.404636,0.6999104 0.404636,1.6294789 0,0.9295685 -0.415572,1.640415 -0.404636,0.6999104 -1.104546,1.0826739 -0.699911,0.3827635 -1.552927,0.3827635 z m 0,-0.874888 q 0.535869,0 1.006122,-0.2515303 0.470252,-0.2515303 0.754591,-0.7545909 0.295274,-0.5030606 0.295274,-1.2248432 0,-0.7217826 -0.284338,-1.2248432 Q 47.108508,4.426565 46.649192,4.1859708 46.189876,3.9344405 45.654007,3.9344405 q -0.546805,0 -1.006121,0.2515303 Q 44.199505,4.426565 43.926103,4.9296256 43.6527,5.4326862 43.6527,6.1544688 q 0,0.7327187 0.262467,1.2357793 0.273402,0.5030606 0.721782,0.7545909 0.448381,0.2405942 0.984249,0.2405942 z m 5.380554,-4.2432068 q 0.262466,-0.5139967 0.743654,-0.7983353 0.492125,-0.2843386 1.192035,-0.2843386 v 1.0279934 h -0.262466 q -1.673223,0 -1.673223,1.8153926 V 9.1618964 H 50.006566 V 3.1689136 h 0.995186 z"
         id="text12"
         style="font-size:10.9361px;line-height:1.25;font-family:Poppins;-inkscape-font-specification:Poppins;stroke-width:0.264583"
         aria-label="Gredor" /><path
         d="m 17.923933,12.164474 q -0.09208,-0.193675 -0.2667,-0.29845 -0.174625,-0.10795 -0.4064,-0.10795 -0.231775,0 -0.4191,0.10795 -0.18415,0.104775 -0.2921,0.3048 -0.104775,0.19685 -0.104775,0.4572 0,0.26035 0.104775,0.4572 0.10795,0.19685 0.2921,0.3048 0.187325,0.104775 0.4191,0.104775 0.32385,0 0.5334,-0.193675 0.20955,-0.193675 0.244475,-0.523875 h -0.88265 v -0.23495 h 1.190625 v 0.22225 q -0.0254,0.27305 -0.17145,0.50165 -0.14605,0.225425 -0.384175,0.358775 -0.238125,0.130175 -0.530225,0.130175 -0.307975,0 -0.561975,-0.142875 -0.254,-0.14605 -0.403225,-0.403225 -0.14605,-0.257175 -0.14605,-0.581025 0,-0.32385 0.14605,-0.581025 0.149225,-0.26035 0.403225,-0.403225 0.254,-0.14605 0.561975,-0.14605 0.352425,0 0.6223,0.174625 0.27305,0.174625 0.396875,0.492125 z m 1.8796,1.571625 -0.52705,-0.904875 h -0.34925 v 0.904875 h -0.288925 v -2.212975 h 0.714375 q 0.250825,0 0.422275,0.08573 0.174625,0.08573 0.26035,0.231775 0.08573,0.14605 0.08573,0.333375 0,0.2286 -0.13335,0.403225 -0.130175,0.174625 -0.3937,0.231775 l 0.555625,0.9271 z m -0.8763,-1.13665 h 0.42545 q 0.23495,0 0.352425,-0.1143 0.117475,-0.117475 0.117475,-0.31115 0,-0.19685 -0.117475,-0.3048 -0.1143,-0.10795 -0.352425,-0.10795 h -0.42545 z m 2.870199,0.644525 h -0.9652 l -0.1778,0.492125 h -0.3048 l 0.8001,-2.200275 h 0.333375 l 0.796925,2.200275 h -0.3048 z m -0.08255,-0.23495 -0.40005,-1.1176 -0.40005,1.1176 z m 2.197099,-1.4859 v 0.23495 h -0.60325 v 1.978025 h -0.288925 v -1.978025 h -0.606425 v -0.23495 z m 0.565152,0 v 2.212975 h -0.288925 v -2.212975 z m 1.114426,2.2352 q -0.219075,0 -0.3937,-0.0762 -0.17145,-0.07938 -0.269875,-0.2159 -0.09842,-0.1397 -0.1016,-0.320675 h 0.307975 q 0.01587,0.155575 0.127,0.263525 0.1143,0.104775 0.3302,0.104775 0.206375,0 0.32385,-0.1016 0.12065,-0.104775 0.12065,-0.2667 0,-0.127 -0.06985,-0.206375 -0.06985,-0.07938 -0.174625,-0.12065 -0.104775,-0.04128 -0.282575,-0.0889 -0.219075,-0.05715 -0.352425,-0.1143 -0.130175,-0.05715 -0.225425,-0.1778 -0.09207,-0.123825 -0.09207,-0.3302 0,-0.180975 0.09207,-0.320675 0.09208,-0.1397 0.257175,-0.2159 0.168275,-0.0762 0.384175,-0.0762 0.31115,0 0.508,0.155575 0.200025,0.155575 0.225425,0.41275 h -0.3175 q -0.01588,-0.127 -0.13335,-0.22225 -0.117475,-0.09843 -0.31115,-0.09843 -0.180975,0 -0.295275,0.09525 -0.1143,0.09207 -0.1143,0.26035 0,0.12065 0.06668,0.19685 0.06985,0.0762 0.168275,0.117475 0.1016,0.0381 0.282575,0.0889 0.219075,0.06033 0.352425,0.12065 0.13335,0.05715 0.2286,0.180975 0.09525,0.12065 0.09525,0.3302 0,0.161925 -0.08573,0.3048 -0.08573,0.142875 -0.254,0.231775 -0.168275,0.0889 -0.396875,0.0889 z m 3.159125,-0.51435 h -0.9652 l -0.1778,0.492125 h -0.3048 l 0.8001,-2.200275 h 0.333375 l 0.796925,2.200275 h -0.3048 z m -0.08255,-0.23495 -0.40005,-1.1176 -0.40005,1.1176 z m -0.05715,-1.9939 q 0,0.1524 -0.09842,0.244475 -0.09525,0.0889 -0.2413,0.0889 -0.142875,0 -0.2413,-0.09207 -0.09842,-0.09207 -0.09842,-0.2413 0,-0.149225 0.09842,-0.2413 0.09842,-0.09207 0.2413,-0.09207 0.14605,0 0.2413,0.09207 0.09842,0.0889 0.09842,0.2413 z m -0.168275,-0.0032 q 0,-0.07938 -0.0508,-0.127 -0.04763,-0.0508 -0.12065,-0.0508 -0.07302,0 -0.123825,0.0508 -0.04763,0.04763 -0.04763,0.127 0,0.07937 0.04763,0.130175 0.0508,0.0508 0.123825,0.0508 0.07303,0 0.12065,-0.0508 0.0508,-0.0508 0.0508,-0.130175 z m 2.225674,2.72415 -0.52705,-0.904875 h -0.34925 v 0.904875 h -0.288925 v -2.212975 h 0.714375 q 0.250825,0 0.422275,0.08573 0.174625,0.08573 0.26035,0.231775 0.08573,0.14605 0.08573,0.333375 0,0.2286 -0.13335,0.403225 -0.130175,0.174625 -0.3937,0.231775 l 0.555625,0.9271 z m -0.8763,-1.13665 h 0.42545 q 0.23495,0 0.352425,-0.1143 0.117475,-0.117475 0.117475,-0.31115 0,-0.19685 -0.117475,-0.3048 -0.1143,-0.10795 -0.352425,-0.10795 h -0.42545 z m 2.263775,1.158875 q -0.219075,0 -0.3937,-0.0762 -0.17145,-0.07938 -0.269875,-0.2159 -0.09842,-0.1397 -0.1016,-0.320675 h 0.307975 q 0.01588,0.155575 0.127,0.263525 0.1143,0.104775 0.3302,0.104775 0.206375,0 0.32385,-0.1016 0.12065,-0.104775 0.12065,-0.2667 0,-0.127 -0.06985,-0.206375 -0.06985,-0.07938 -0.174625,-0.12065 -0.104775,-0.04128 -0.282575,-0.0889 -0.219075,-0.05715 -0.352425,-0.1143 -0.130175,-0.05715 -0.225425,-0.1778 -0.09207,-0.123825 -0.09207,-0.3302 0,-0.180975 0.09207,-0.320675 0.09208,-0.1397 0.257175,-0.2159 0.168275,-0.0762 0.384175,-0.0762 0.31115,0 0.508,0.155575 0.200025,0.155575 0.225425,0.41275 h -0.3175 q -0.01588,-0.127 -0.13335,-0.22225 -0.117475,-0.09843 -0.31115,-0.09843 -0.180975,0 -0.295275,0.09525 -0.1143,0.09207 -0.1143,0.26035 0,0.12065 0.06668,0.19685 0.06985,0.0762 0.168275,0.117475 0.1016,0.0381 0.282575,0.0889 0.219075,0.06033 0.352425,0.12065 0.13335,0.05715 0.2286,0.180975 0.09525,0.12065 0.09525,0.3302 0,0.161925 -0.08572,0.3048 -0.08573,0.142875 -0.254,0.231775 -0.168275,0.0889 -0.396875,0.0889 z m 2.247899,-0.02223 -0.52705,-0.904875 h -0.34925 v 0.904875 h -0.288925 v -2.212975 h 0.714375 q 0.250825,0 0.422275,0.08573 0.174625,0.08573 0.26035,0.231775 0.08573,0.14605 0.08573,0.333375 0,0.2286 -0.13335,0.403225 -0.130175,0.174625 -0.3937,0.231775 l 0.555625,0.9271 z m -0.8763,-1.13665 h 0.42545 q 0.23495,0 0.352425,-0.1143 0.117475,-0.117475 0.117475,-0.31115 0,-0.19685 -0.117475,-0.3048 -0.1143,-0.10795 -0.352425,-0.10795 h -0.42545 z m 1.851025,-0.841375 v 0.739775 h 0.80645 v 0.238125 h -0.80645 v 0.762 h 0.9017 v 0.238125 h -1.190625 v -2.21615 h 1.190625 v 0.238125 z m 1.94945,-0.23495 q 0.36195,0 0.625475,0.136525 0.2667,0.13335 0.4064,0.384175 0.142875,0.250825 0.142875,0.59055 0,0.339725 -0.142875,0.59055 -0.1397,0.24765 -0.4064,0.381 -0.263525,0.130175 -0.625475,0.130175 h -0.688975 v -2.212975 z m 0,1.97485 q 0.428625,0 0.65405,-0.225425 0.225425,-0.2286 0.225425,-0.638175 0,-0.41275 -0.2286,-0.644525 -0.225425,-0.231775 -0.650875,-0.231775 h -0.40005 v 1.7399 z m 2.479679,0.26035 q -0.307975,0 -0.561975,-0.142875 -0.254,-0.14605 -0.403225,-0.403225 -0.14605,-0.26035 -0.14605,-0.5842 0,-0.32385 0.14605,-0.581025 0.149225,-0.26035 0.403225,-0.403225 0.254,-0.14605 0.561975,-0.14605 0.31115,0 0.56515,0.14605 0.254,0.142875 0.40005,0.40005 0.14605,0.257175 0.14605,0.5842 0,0.327025 -0.14605,0.5842 -0.14605,0.257175 -0.40005,0.403225 -0.254,0.142875 -0.56515,0.142875 z m 0,-0.250825 q 0.231775,0 0.415925,-0.10795 0.187325,-0.10795 0.2921,-0.307975 0.10795,-0.200025 0.10795,-0.46355 0,-0.2667 -0.10795,-0.46355 -0.104775,-0.200025 -0.288925,-0.307975 -0.18415,-0.10795 -0.4191,-0.10795 -0.23495,0 -0.4191,0.10795 -0.18415,0.10795 -0.2921,0.307975 -0.104775,0.19685 -0.104775,0.46355 0,0.263525 0.104775,0.46355 0.10795,0.200025 0.2921,0.307975 0.187325,0.10795 0.4191,0.10795 z m 3.241672,-1.984375 -0.835025,2.212975 h -0.333375 l -0.835025,-2.212975 h 0.307975 l 0.695325,1.908175 0.695325,-1.908175 z m 0.527052,0 v 2.212975 H 43.18741 v -2.212975 z m 1.114425,2.2352 q -0.219075,0 -0.3937,-0.0762 -0.17145,-0.07938 -0.269875,-0.2159 -0.09843,-0.1397 -0.1016,-0.320675 h 0.307975 q 0.01588,0.155575 0.127,0.263525 0.1143,0.104775 0.3302,0.104775 0.206375,0 0.32385,-0.1016 0.12065,-0.104775 0.12065,-0.2667 0,-0.127 -0.06985,-0.206375 -0.06985,-0.07938 -0.174625,-0.12065 -0.104775,-0.04128 -0.282575,-0.0889 -0.219075,-0.05715 -0.352425,-0.1143 -0.130175,-0.05715 -0.225425,-0.1778 -0.09208,-0.123825 -0.09208,-0.3302 0,-0.180975 0.09208,-0.320675 0.09208,-0.1397 0.257175,-0.2159 0.168275,-0.0762 0.384175,-0.0762 0.31115,0 0.508,0.155575 0.200025,0.155575 0.225425,0.41275 h -0.3175 q -0.01588,-0.127 -0.13335,-0.22225 -0.117475,-0.09843 -0.31115,-0.09843 -0.180975,0 -0.295275,0.09525 -0.1143,0.09207 -0.1143,0.26035 0,0.12065 0.06668,0.19685 0.06985,0.0762 0.168275,0.117475 0.1016,0.0381 0.282575,0.0889 0.219075,0.06033 0.352425,0.12065 0.13335,0.05715 0.2286,0.180975 0.09525,0.12065 0.09525,0.3302 0,0.161925 -0.08573,0.3048 -0.08572,0.142875 -0.254,0.231775 -0.168275,0.0889 -0.396875,0.0889 z m 2.822575,-0.02223 H 47.12441 l -1.16205,-1.762125 v 1.762125 h -0.288925 v -2.21615 h 0.288925 l 1.16205,1.75895 v -1.75895 h 0.288925 z m 0.701672,-2.212975 v 2.212975 h -0.288925 v -2.212975 z m 2.15265,2.212975 h -0.288925 l -1.16205,-1.762125 v 1.762125 h -0.288925 v -2.21615 h 0.288925 l 1.16205,1.75895 v -1.75895 h 0.288925 z m 2.089149,-1.571625 q -0.09208,-0.193675 -0.2667,-0.29845 -0.174625,-0.10795 -0.4064,-0.10795 -0.231775,0 -0.4191,0.10795 -0.18415,0.104775 -0.2921,0.3048 -0.104775,0.19685 -0.104775,0.4572 0,0.26035 0.104775,0.4572 0.10795,0.19685 0.2921,0.3048 0.187325,0.104775 0.4191,0.104775 0.32385,0 0.5334,-0.193675 0.20955,-0.193675 0.244475,-0.523875 h -0.88265 v -0.23495 h 1.190625 v 0.22225 q -0.0254,0.27305 -0.17145,0.50165 -0.14605,0.225425 -0.384175,0.358775 -0.238125,0.130175 -0.530225,0.130175 -0.307975,0 -0.561975,-0.142875 -0.254,-0.14605 -0.403225,-0.403225 -0.14605,-0.257175 -0.14605,-0.581025 0,-0.32385 0.14605,-0.581025 0.149225,-0.26035 0.403225,-0.403225 0.254,-0.14605 0.561975,-0.14605 0.352425,0 0.6223,0.174625 0.27305,0.174625 0.396875,0.492125 z"
         id="text16-5"
         style="font-size:3.175px;line-height:1.25;font-family:Poppins;-inkscape-font-specification:Poppins;letter-spacing:-0.079375px;word-spacing:0px;stroke-width:0.264583"
         aria-label="GRATIS ÅRSREDOVISNING" /></g><g
       id="g128"
       transform="matrix(0.01673348,0,0,0.01673348,1.8545631,3.5214458)"
       style="fill:#000000"><g
         id="g126"><path
           id="path122"
           d="m 500.68,235.35919 c -3.034,-4.469 -5.852,-9.591 -8.837,-15.012 -11.882,-21.582 -28.153,-51.138 -71.767,-51.138 -9.464,0 -18.056,2.129 -25.814,5.673 -14.989,-42.889 -41.132,-63.164 -66.537,-82.840997 -23.242,-18.001 -45.195,-35.004 -61.092,-70.599 L 254.703,-5.2698072 238.7,19.223193 c -1.141,1.745 -25.74,39.741 -42.602,93.101997 -32.685,-11.824 -65.481,-24.926997 -94.668,-43.787997 l -18.781998,-12.139 -5.375,21.707 c -0.389,1.575 -9.429,39.094997 1.286,83.744997 3.986,16.608 11.074,35.48 23.452998,54.04 1.418,12.453 6.849,49.847 23.927,87.665 13.145,29.109 30.178,51.847 50.586,67.882 -26.811,2.182 -72.612,1.694 -140.174998,-12.55 L 1.7928131e-6,351.22619 19.463002,382.87019 c 1.045,1.7 26.182,42.016 76.238,75.261 29.499998,19.592 61.611998,32.715 95.448998,39.006 15.497,2.882 31.348,4.32 47.491,4.32 27.728,0 56.318,-4.245 85.455,-12.713 91.815,-26.685 117.447,-106.828 136.162,-165.346 9.666,-30.222 18.796,-58.768 32.914,-64.164 L 512,252.03919 Z M 251.842,60.807193 c 17.206,26.165 37.728,42.058997 56.338,56.472997 25.529,19.773 47.786,37.017 59.057,78.135 -4.09,4.516 -7.74,9.281 -10.96,14.017 -3.789,-6.867 -8.484,-13.947 -14.235,-21.295 -24.555,-31.376 -68.443,-48.26 -115.831,-65.1 7.874,-25.139997 17.754,-46.865997 25.631,-62.229997 z M 429.853,313.67219 c -8.899,27.826 -18.986,59.365 -36.402,86.044 -19.312,29.586 -44.914,48.681 -78.264,58.373 -40.97,11.907 -80.471,14.534 -117.405,7.808 -29.47,-5.366 -57.512,-16.69 -83.349,-33.654 -17.047998,-11.192 -30.929998,-23.43 -41.590998,-34.301 89.009998,13.384 135.819998,2.149 151.031998,-2.904 11.501,3.012 23.644,4.548 36.391,4.548 v -31.922 c -46.461,0 -81.76,-25.755 -104.917,-76.55 -5.003,-10.974 -8.899,-22.018 -11.93,-32.297 15.611,11.449 34.668,21.736 57.929,29.98 l 10.665,-30.088 c -55.657,-19.727 -90.016,-54.428 -102.126,-103.139 -4.491,-18.064 -5.027,-34.945 -4.379,-47.579 33.075,17.912 68.76,30.531 100.925,41.905 46.322,16.38 90.074,31.852 110.471,57.914 32.091,41.005 22.009,65.851 3.704,110.954 -1.949,4.805 -3.967,9.774 -5.993,14.936 l 29.715,11.664 c 1.96,-4.993 3.941,-9.875 5.858,-14.596 10.919,-26.906 20.976,-51.699 19.243,-78.5 5.315,-12.904 23.378,-51.136 50.645,-51.136 23.599,0 31.633,12.506 43.802,34.61 0.649,1.179 1.303,2.367 1.965,3.557 -17.216,15.673 -26.069,43.357 -35.989,74.373 z" /><circle
           id="circle124"
           r="10.641"
           cy="243.354"
           cx="426.483" /></g></g><path
       d="m 1.1509378,15.345833 c -0.30691676,0 -0.57546898,-0.115086 -0.80565665,-0.345281 C 0.11509376,14.770365 0,14.501813 0,14.194896 V 1.1509376 C 0,0.84402046 0.11509376,0.57546737 0.34528115,0.34528129 0.57546882,0.11509376 0.84402104,0 1.1509378,0 H 9.1340792 L 12.276668,3.1425884 V 14.194896 c 0,0.306917 -0.115094,0.575469 -0.345281,0.805656 -0.230188,0.230188 -0.49874,0.345281 -0.805656,0.345281 z M 8.5586103,3.660511 V 1.1509376 H 1.1509378 V 14.194896 H 11.125731 V 3.660511 Z M 1.1509378,1.1509376 V 4.7188443 1.1509376 14.194896 Z"
       id="path1"
       style="fill:#000000;stroke-width:0.0191823" /></g></svg>
